<svg xmlns="http://www.w3.org/2000/svg" viewBox="0 0 577 513"><title>oneTnine_logo_BW</title><g id="Ring"><path d="M120,227h13q5.33,0,9.14,5.16a20.12,20.12,0,0,1,3.81,12.29v26.1a20,20,0,0,1-3.81,12.21Q138.26,288,133,288H120q-5.33,0-9.14-5.12A19.94,19.94,0,0,1,107,270.58v-26.1a20,20,0,0,1,3.83-12.33Q114.66,227,120,227Zm0,17.45v26.1a9.89,9.89,0,0,0,1.9,6.07,5.41,5.41,0,0,0,9.21,0,9.94,9.94,0,0,0,1.89-6.07v-26.1a9.92,9.92,0,0,0-1.93-6.15,5.37,5.37,0,0,0-9.16,0A10,10,0,0,0,120,244.48Z"/><path d="M158.85,288V227h13v8.73c.26-2.94.93-5.12,2-6.56A5.29,5.29,0,0,1,178.3,227h6.5q5.32,0,9.14,5.16a20.12,20.12,0,0,1,3.81,12.29V288H184.8V244.48a9.92,9.92,0,0,0-1.93-6.15,5.37,5.37,0,0,0-9.16,0,10,10,0,0,0-1.91,6.15V288Z"/><path d="M249.6,261.85h-26v8.73a10,10,0,0,0,1.9,6.07,5.6,5.6,0,0,0,4.61,2.57h6.5q6.45,0,6.44-8.64h6.51Q248.09,288,236.65,288h-13q-5.31,0-9.13-5.12a19.94,19.94,0,0,1-3.81-12.25v-26.1a19.94,19.94,0,0,1,3.83-12.33q3.83-5.11,9.11-5.12h13q5.32,0,9.13,5.16a20.07,20.07,0,0,1,3.82,12.29Zm-26-8.72h13v-8.65a9.92,9.92,0,0,0-1.93-6.15,5.37,5.37,0,0,0-9.16,0,10,10,0,0,0-1.92,6.15Z"/><path d="M275.57,305.17l-3.83-17.24L269,218.39H256l-20.16-8.72h78.87l-19.81,8.72H282l-2.6,69.54-4.08,17.51Z"/><path d="M301.45,288V227h12.94v8.73c.27-2.94.94-5.12,2-6.56A5.29,5.29,0,0,1,320.9,227h6.5q5.33,0,9.13,5.16a20.07,20.07,0,0,1,3.82,12.29V288h-13V244.48a9.92,9.92,0,0,0-1.93-6.15,5.37,5.37,0,0,0-9.16,0,10,10,0,0,0-1.92,6.15V288Z"/><rect x="353.01" y="207.56" width="13.52" height="9.11"/><rect x="353.3" y="227.03" width="12.95" height="60.91"/><path d="M379.25,288V227H392.2v8.73c.26-2.94.93-5.12,2-6.56A5.3,5.3,0,0,1,398.7,227h6.5q5.32,0,9.14,5.16a20.12,20.12,0,0,1,3.81,12.29V288H405.2V244.48a9.92,9.92,0,0,0-1.93-6.15,5.37,5.37,0,0,0-9.16,0,10,10,0,0,0-1.91,6.15V288Z"/><path d="M470,261.85H444.05v8.73a9.94,9.94,0,0,0,1.89,6.07,5.62,5.62,0,0,0,4.61,2.57h6.5q6.45,0,6.45-8.64H470Q468.49,288,457.05,288h-13q-5.32,0-9.14-5.12a19.94,19.94,0,0,1-3.81-12.25v-26.1a19.94,19.94,0,0,1,3.83-12.33q3.82-5.11,9.12-5.12h13q5.32,0,9.14,5.16A20.12,20.12,0,0,1,470,244.48Zm-25.95-8.72h13v-8.65a9.92,9.92,0,0,0-1.93-6.15,5.37,5.37,0,0,0-9.16,0,10,10,0,0,0-1.91,6.15Z"/><path d="M73,256.13C72.18,135.71,168.56,35,289.24,35.5,408,36,505.31,134.23,504,259.43c-1.27,120.3-97.29,219.5-219,218.05C168.82,476.1,71.64,377.32,73,256.13ZM286.63,461.76c22.69-.66,43.68-3.51,64.17-10.54,46.11-15.81,82.52-44.86,108-87.52,29.75-49.78,37.35-103.64,22.61-160.44-12.21-47-37.94-84.46-75.91-112.69a197.47,197.47,0,0,0-174.1-30.66c-33.67,10.36-63.27,28.46-87.65,55.34-45.15,49.8-63.4,108.55-52.69,175.94,7.29,45.88,28.63,84.47,61.9,116C191.3,443.43,236.65,460.27,286.63,461.76Z"/></g></svg>